<?xml version="1.0" ?><svg height="1024" preserveAspectRatio="xMidYMid meet" width="1024" xmlns="http://www.w3.org/2000/svg"><g><title/><rect fill="none" height="402" id="canvas_background" width="582" x="-1" y="-1"/></g><g><title/><g fill="#000000" id="svg_1" transform="translate(0,1024) scale(0.10000000149011612,-0.10000000149011612) "><path d="m4855,9439c-884,-55 -1739,-386 -2430,-940c-659,-528 -1153,-1237 -1414,-2029c-318,-963 -287,-2010 86,-2960c64,-163 217,-472 310,-626c376,-621 876,-1121 1497,-1497c154,-93 464,-246 626,-310c1034,-405 2166,-405 3200,0c162,64 472,217 626,310c621,376 1121,876 1497,1497c93,154 246,464 310,626c377,962 404,2009 77,2990c-120,357 -321,757 -545,1081c-533,768 -1320,1357 -2205,1648c-523,173 -1083,245 -1635,210zm2275,-2494c139,-28 299,-108 403,-201c126,-113 210,-278 238,-465c18,-126 7,-386 -25,-551c-123,-641 -397,-1243 -821,-1803c-300,-397 -906,-1048 -1259,-1354c-163,-141 -393,-314 -468,-352c-264,-133 -483,-115 -715,60c-168,127 -311,308 -393,498c-58,136 -198,560 -445,1358c-233,750 -395,1250 -434,1342c-19,42 -30,54 -62,67c-117,47 -287,-5 -496,-150c-42,-29 -78,-53 -78,-51c-1,1 -50,69 -109,151c-106,147 -107,149 -88,170c10,11 67,77 127,146c212,245 364,388 665,629c564,452 944,574 1198,386c135,-98 251,-325 322,-626c11,-48 54,-286 95,-530c94,-555 106,-615 161,-824c150,-563 237,-816 308,-893c27,-30 69,-52 98,-52c99,1 260,164 435,440c156,245 373,655 411,775c73,227 42,422 -89,560c-131,139 -296,150 -529,37c-52,-25 -99,-48 -104,-50c-21,-10 32,200 81,321c44,109 122,249 188,337c135,181 361,367 579,477c302,152 558,199 806,148z" fill="#4ebbff" id="svg_2"/></g></g></svg>